<svg width="14" height="15" viewBox="0 0 14 15" fill="none" xmlns="http://www.w3.org/2000/svg">
<path d="M0.189122 0.189138C-0.0630264 0.441286 -0.0630689 0.85018 0.189164 1.10237L6.19013 7.1032L0.189122 13.1043C-0.0630264 13.3565 -0.0630689 13.7654 0.189164 14.0176C0.441355 14.2697 0.85021 14.2697 1.1024 14.0176L7.56001 7.55982C7.68112 7.43871 7.7491 7.27448 7.7491 7.1032C7.7491 6.93195 7.68105 6.76767 7.55994 6.64661L1.10236 0.189181C0.85021 -0.0630532 0.441312 -0.0630532 0.189122 0.189138Z" fill="black"/>
<path d="M13.8109 0.189138C14.063 0.441286 14.0631 0.85018 13.8108 1.10237L7.80988 7.1032L13.8109 13.1043C14.063 13.3565 14.0631 13.7654 13.8108 14.0176C13.5586 14.2697 13.1498 14.2697 12.8976 14.0176L6.43999 7.55982C6.31888 7.43871 6.2509 7.27448 6.2509 7.1032C6.2509 6.93195 6.31895 6.76767 6.44006 6.64661L12.8976 0.189181C13.1498 -0.0630532 13.5587 -0.0630532 13.8109 0.189138Z" fill="black"/>
</svg>
