<svg width="14" height="14" viewBox="0 0 14 14" fill="none" xmlns="http://www.w3.org/2000/svg">
<path d="M13.2222 2.33332C13.6517 1.90376 13.6517 1.20732 13.2222 0.777763C12.7926 0.348208 12.0962 0.348208 11.6666 0.777763L0.777733 11.6666C0.348179 12.0962 0.348177 12.7926 0.777731 13.2222C1.20729 13.6517 1.90373 13.6517 2.33328 13.2222L13.2222 2.33332Z" fill="black"/>
<path d="M13.2222 2.33332C13.6517 1.90376 13.6517 1.20732 13.2222 0.777763C12.7926 0.348208 12.0962 0.348208 11.6666 0.777763L0.777733 11.6666C0.348179 12.0962 0.348177 12.7926 0.777731 13.2222C1.20729 13.6517 1.90373 13.6517 2.33328 13.2222L13.2222 2.33332Z" fill="black"/>
<path d="M13.2222 2.33332C13.6517 1.90376 13.6517 1.20732 13.2222 0.777763C12.7926 0.348208 12.0962 0.348208 11.6666 0.777763L0.777733 11.6666C0.348179 12.0962 0.348177 12.7926 0.777731 13.2222C1.20729 13.6517 1.90373 13.6517 2.33328 13.2222L13.2222 2.33332Z" fill="black"/>
<path d="M0.777772 2.33332C0.348217 1.90376 0.348216 1.20732 0.77777 0.777763C1.20732 0.348208 1.90377 0.348208 2.33332 0.777763L13.2222 11.6666C13.6518 12.0962 13.6518 12.7926 13.2222 13.2222C12.7926 13.6517 12.0962 13.6517 11.6666 13.2222L0.777772 2.33332Z" fill="black"/>
<path d="M0.777772 2.33332C0.348217 1.90376 0.348216 1.20732 0.77777 0.777763C1.20732 0.348208 1.90377 0.348208 2.33332 0.777763L13.2222 11.6666C13.6518 12.0962 13.6518 12.7926 13.2222 13.2222C12.7926 13.6517 12.0962 13.6517 11.6666 13.2222L0.777772 2.33332Z" fill="black"/>
<path d="M0.777772 2.33332C0.348217 1.90376 0.348216 1.20732 0.77777 0.777763C1.20732 0.348208 1.90377 0.348208 2.33332 0.777763L13.2222 11.6666C13.6518 12.0962 13.6518 12.7926 13.2222 13.2222C12.7926 13.6517 12.0962 13.6517 11.6666 13.2222L0.777772 2.33332Z" fill="black"/>
</svg>
