<svg width="30" height="30" viewBox="0 0 30 30" fill="none" xmlns="http://www.w3.org/2000/svg">
<g clip-path="url(#clip0_451_807)">
<mask id="mask0_451_807" style="mask-type:luminance" maskUnits="userSpaceOnUse" x="0" y="0" width="30" height="30">
<path d="M30 0H0V30H30V0Z" fill="white"/>
</mask>
<g mask="url(#mask0_451_807)">
<path d="M29.25 4.75C29.25 2.54086 27.4591 0.75 25.25 0.75H4.75C2.54086 0.75 0.75 2.54086 0.75 4.75V25.25C0.75 27.4591 2.54086 29.25 4.75 29.25H25.25C27.4591 29.25 29.25 27.4591 29.25 25.25V4.75Z" stroke="black"/>
<path d="M22.5 21.75C22.5 21.3358 22.1642 21 21.75 21H8.25C7.83579 21 7.5 21.3358 7.5 21.75V21.75C7.5 22.1642 7.83579 22.5 8.25 22.5H21.75C22.1642 22.5 22.5 22.1642 22.5 21.75V21.75Z" fill="black"/>
<path d="M15.6881 8.45013C15.686 8.53651 15.67 8.62198 15.6405 8.70319L12.3152 17.8582C12.2189 18.1233 11.967 18.2998 11.685 18.2998V18.2998C11.2153 18.2998 10.8912 17.8294 11.0585 17.3905L14.6436 7.98542C14.7239 7.77487 14.9258 7.63574 15.1511 7.63574V7.63574C15.4561 7.63574 15.7012 7.88672 15.6941 8.19157L15.6881 8.45013ZM19.1157 18.2998C18.8325 18.2998 18.5797 18.1227 18.4828 17.8567L15.1512 8.70339C15.1216 8.62205 15.1055 8.53642 15.1035 8.44989L15.0974 8.19192C15.0903 7.88688 15.3356 7.63574 15.6407 7.63574V7.63574C15.866 7.63574 16.0679 7.77467 16.1483 7.98503L19.7446 17.3857C19.9133 17.8267 19.5877 18.2998 19.1157 18.2998V18.2998ZM17.8823 14.3521C18.2019 14.3521 18.4609 14.6112 18.4609 14.9307V14.9307C18.4609 15.2503 18.2019 15.5093 17.8823 15.5093H13.0483C12.7288 15.5093 12.4697 15.2503 12.4697 14.9307V14.9307C12.4697 14.6112 12.7288 14.3521 13.0483 14.3521H17.8823Z" fill="black"/>
</g>
</g>
<defs>
<clipPath id="clip0_451_807">
<rect width="30" height="30" rx="4" fill="white"/>
</clipPath>
</defs>
</svg>
