<svg width="30" height="30" viewBox="0 0 30 30" fill="none" xmlns="http://www.w3.org/2000/svg">
<g clip-path="url(#clip0_51_843)">
<mask id="mask0_51_843" style="mask-type:luminance" maskUnits="userSpaceOnUse" x="0" y="0" width="30" height="30">
<path d="M26 0H4C1.79086 0 0 1.79086 0 4V26C0 28.2091 1.79086 30 4 30H26C28.2091 30 30 28.2091 30 26V4C30 1.79086 28.2091 0 26 0Z" fill="white"/>
</mask>
<g mask="url(#mask0_51_843)">
<mask id="mask1_51_843" style="mask-type:luminance" maskUnits="userSpaceOnUse" x="0" y="0" width="30" height="30">
<path d="M30 0H0V30H30V0Z" fill="white"/>
</mask>
<g mask="url(#mask1_51_843)">
<path d="M29.25 4.75C29.25 2.54086 27.4591 0.75 25.25 0.75H4.75C2.54086 0.75 0.75 2.54086 0.75 4.75V25.25C0.75 27.4591 2.54086 29.25 4.75 29.25H25.25C27.4591 29.25 29.25 27.4591 29.25 25.25V4.75Z" stroke="black" stroke-width="0.6"/>
<path d="M22.5 21.75C22.5 21.3358 22.1642 21 21.75 21H8.25C7.83579 21 7.5 21.3358 7.5 21.75C7.5 22.1642 7.83579 22.5 8.25 22.5H21.75C22.1642 22.5 22.5 22.1642 22.5 21.75Z" fill="black"/>
</g>
</g>
<path d="M15.5161 7.46989V17.8H14.1681V7.46989H15.5161ZM18.8365 7.46989V8.59088H10.8547V7.46989H18.8365Z" fill="black"/>
</g>
<defs>
<clipPath id="clip0_51_843">
<rect width="30" height="30" fill="white"/>
</clipPath>
</defs>
</svg>
