<svg width="30" height="30" viewBox="0 0 30 30" fill="none" xmlns="http://www.w3.org/2000/svg">
<g clip-path="url(#clip0_451_798)">
<mask id="mask0_451_798" style="mask-type:luminance" maskUnits="userSpaceOnUse" x="0" y="0" width="30" height="30">
<path d="M30 0H0V30H30V0Z" fill="white"/>
</mask>
<g mask="url(#mask0_451_798)">
<path d="M29.25 4.75C29.25 2.54086 27.4591 0.75 25.25 0.75H4.75C2.54086 0.75 0.75 2.54086 0.75 4.75V25.25C0.75 27.4591 2.54086 29.25 4.75 29.25H25.25C27.4591 29.25 29.25 27.4591 29.25 25.25V4.75Z" stroke="black"/>
<path d="M23.1537 10.7959C23.1537 8.58676 21.3628 6.7959 19.1537 6.7959H10.7959C8.58676 6.7959 6.7959 8.58676 6.7959 10.7959V19.1537C6.7959 21.3628 8.58676 23.1537 10.7959 23.1537H19.1537C21.3628 23.1537 23.1537 21.3628 23.1537 19.1537V10.7959Z" stroke="black" stroke-width="1.12812"/>
<path d="M13.9749 17.6202L18.8132 10.5406C19.0754 10.1569 19.599 10.0584 19.9828 10.3207C20.3665 10.5829 20.465 11.1066 20.2027 11.4903L15.3645 18.5698C15.1023 18.9535 14.5786 19.052 14.1949 18.7898C13.8112 18.5275 13.7127 18.0039 13.9749 17.6202Z" fill="black"/>
<path d="M14.0001 18.6674L9.81236 15.0548C9.46045 14.7513 9.42127 14.2199 9.72485 13.868C10.0284 13.5161 10.5598 13.4769 10.9117 13.7805L15.0994 17.393C15.4513 17.6966 15.4905 18.228 15.1869 18.5799C14.8834 18.9318 14.352 18.971 14.0001 18.6674Z" fill="black"/>
</g>
</g>
<defs>
<clipPath id="clip0_451_798">
<rect width="30" height="30" rx="4" fill="white"/>
</clipPath>
</defs>
</svg>
