<svg width="28" height="15" viewBox="0 0 28 15" fill="none" xmlns="http://www.w3.org/2000/svg">
<path d="M27.2071 8.20711C27.5976 7.81658 27.5976 7.18342 27.2071 6.79289L20.8431 0.428933C20.4526 0.0384087 19.8195 0.0384087 19.4289 0.428933C19.0384 0.819457 19.0384 1.45262 19.4289 1.84315L25.0858 7.5L19.4289 13.1569C19.0384 13.5474 19.0384 14.1805 19.4289 14.5711C19.8195 14.9616 20.4526 14.9616 20.8431 14.5711L27.2071 8.20711ZM1.5 8.5L26.5 8.5L26.5 6.5L1.5 6.5L1.5 8.5Z" fill="black"/>
<path d="M0.792893 6.79289C0.402369 7.18342 0.402369 7.81658 0.792893 8.2071L7.15685 14.5711C7.54738 14.9616 8.18054 14.9616 8.57107 14.5711C8.96159 14.1805 8.96159 13.5474 8.57107 13.1569L2.91421 7.5L8.57107 1.84314C8.96159 1.45262 8.96159 0.819455 8.57107 0.428931C8.18054 0.0384063 7.54738 0.0384062 7.15685 0.42893L0.792893 6.79289ZM26.5 6.5L1.5 6.5L1.5 8.5L26.5 8.5L26.5 6.5Z" fill="black"/>
</svg>
